<!DOCTYPE svg PUBLIC "-//W3C//DTD SVG 1.1//EN" "http://www.w3.org/Graphics/SVG/1.1/DTD/svg11.dtd">

<!-- Uploaded to: SVG Repo, www.svgrepo.com, Transformed by: SVG Repo Mixer Tools -->
<svg width="32px" height="32px" viewBox="0 0 512 512" xmlns="http://www.w3.org/2000/svg" fill="#ffffff">

<g id="SVGRepo_bgCarrier" stroke-width="0"/>

<g id="SVGRepo_tracerCarrier" stroke-linecap="round" stroke-linejoin="round" stroke="#CCCCCC" stroke-width="8.192"/>

<g id="SVGRepo_iconCarrier">

<title>ionicons-v5-p</title>

<path d="M32,160V456a8,8,0,0,0,8,8H176V160a16,16,0,0,0-16-16H48A16,16,0,0,0,32,160Z" style="fill:none;stroke:#fff;stroke-linecap:round;stroke-linejoin:round;stroke-width:32px"/>

<path d="M320,48H192a16,16,0,0,0-16,16V464H336V64A16,16,0,0,0,320,48Z" style="fill:none;stroke:#fff;stroke-linecap:round;stroke-linejoin:round;stroke-width:32px"/>

<path d="M464,208H352a16,16,0,0,0-16,16V464H472a8,8,0,0,0,8-8V224A16,16,0,0,0,464,208Z" style="fill:none;stroke:#fff;stroke-linecap:round;stroke-linejoin:round;stroke-width:32px"/>

</g>

</svg>